# xmcd
#
# Track frame offsets: 
#        150
#        27454
#        49400
#        68625
#        88604
#        110751
#        130954
#        153037
#        170659
#        190864
#        212987
#        229745
#        249114
#        265230
#        290173
#
# Disc length: 4145 seconds
#
# Revision: 0
# Processed by: cddbd v1.5.2PL0 Copyright (c) Steve Scherf et al.
# Submitted via: ExactAudioCopyFreeDBPlugin 1.0
#
DISCID=dc102f0f
DTITLE=29A - STE20试音极品TESTCD
DYEAR=2015
DGENRE=STE
TTITLE0=山丘
TTITLE1=当你老了
TTITLE2=赤子
TTITLE3=雨丝情愁
TTITLE4=你是我心爱的姑娘
TTITLE5=我真的好难过
TTITLE6=风吹麦浪
TTITLE7=静静的夜晚
TTITLE8=忘不了
TTITLE9=一路上有你
TTITLE10=像梦一样自由
TTITLE11=送别
TTITLE12=卷珠帘
TTITLE13=你的每一次呼吸
TTITLE14=一生一世爱能几回
EXTD=
EXTT0=
EXTT1=
EXTT2=
EXTT3=
EXTT4=
EXTT5=
EXTT6=
EXTT7=
EXTT8=
EXTT9=
EXTT10=
EXTT11=
EXTT12=
EXTT13=
EXTT14=
PLAYORDER=
